<svg xmlns="http://www.w3.org/2000/svg" viewBox="0 0 64 64" fill="none">
  <rect width="64" height="64" rx="14" fill="#f59e0b"/>
  <rect x="6" y="6" width="52" height="52" rx="11" fill="#fbbf24"/>
  <path d="M20 38c0-2 1-3 3-3h18c2 0 3 1 3 3v6c0 2-1 3-3 3H23c-2 0-3-1-3-3v-6z" fill="#0a0a0a"/>
  <path d="M22 35c0-6 4-11 10-11 5 0 8 2 10 6l4 8-3 1-3-5c-1.5-3-4-5-8-5-4 0-7 3-8 6l-2 0z" fill="#0a0a0a"/>
  <circle cx="40" cy="42" r="1.5" fill="#fbbf24"/>
  <circle cx="34" cy="42" r="1.5" fill="#fbbf24"/>
  <circle cx="28" cy="42" r="1.5" fill="#fbbf24"/>
</svg>
